<svg width="14" height="18" viewBox="0 0 14 18" fill="none" xmlns="http://www.w3.org/2000/svg"> <path d="M13.555 6.136C13.455 6.217 11.694 7.256 11.694 9.565 11.694 12.236 13.935 13.181 14.002 13.205 13.991 13.262 13.646 14.499 12.82 15.759 12.084 16.868 11.315 17.975 10.146 17.975 8.976 17.975 8.675 17.264 7.325 17.264 6.009 17.264 5.542 17.998 4.472 17.998 3.402 17.998 2.656 16.972 1.797 15.712.803 14.233 0 11.934 0 9.752 0 6.253 2.174 4.397 4.314 4.397 5.45 4.397 6.398 5.179 7.112 5.179 7.791 5.179 8.851 4.351 10.144 4.351 10.634 4.351 12.395 4.397 13.555 6.136ZM9.53 2.869C10.065 2.205 10.443 1.283 10.443.362 10.443.234 10.433.104 10.411 0 9.54.034 8.505.607 7.881 1.364 7.39 1.948 6.933 2.869 6.933 3.803 6.933 3.944 6.955 4.084 6.966 4.129 7.021 4.14 7.11 4.153 7.2 4.153 7.98 4.153 8.962 3.605 9.53 2.869Z" fill="white" fillOpacity="0.8" /></svg>