<svg viewBox="0 0 11 12" xmlns="http://www.w3.org/2000/svg"><path d="M9.201 2.386H8.333C8.24 1.733 7.903 1.134 7.384.696 6.864.258 6.196.011 5.5 0 4.804.011 4.136.258 3.616.696 3.097 1.134 2.76 1.733 2.667 2.386H1.8C1.323 2.386.865 2.565.528 2.885.19 3.204 0 3.637 0 4.088V10.297C0 10.748.19 11.181.527 11.501.865 11.82 1.322 11.999 1.799 12H9.201C9.678 12 10.135 11.82 10.473 11.501 10.81 11.181 11 10.748 11 10.297V4.088C10.999 3.637 10.81 3.204 10.473 2.885 10.135 2.566 9.678 2.386 9.201 2.386ZM5.5.885C5.948.894 6.38 1.048 6.723 1.321 7.067 1.594 7.302 1.969 7.389 2.386H3.611C3.698 1.969 3.933 1.594 4.277 1.321 4.62 1.048 5.052.894 5.5.885ZM10.065 10.297C10.065 10.514 9.974 10.722 9.812 10.875 9.65 11.028 9.43 11.115 9.201 11.115H1.799C1.57 11.115 1.35 11.028 1.188 10.875 1.026 10.722.935 10.514.935 10.297V4.088C.935 3.872 1.026 3.664 1.188 3.51 1.351 3.357 1.57 3.271 1.799 3.27H9.201C9.43 3.271 9.65 3.357 9.812 3.51 9.974 3.664 10.065 3.872 10.065 4.088V10.297Z" fill="white" fillOpacity="0.8" /></svg>