<svg width="20" height="20" viewBox="0 0 20 20" fill="none" xmlns="http://www.w3.org/2000/svg" className="ml-2"> <path d="M10 20A1 1 0 0110 0 1 1 0 0110 20ZM10 18.333A1 1 0 0010 1.777 1 1 0 0010 18.333ZM8.275 13.608C8.131 13.693 7.989 13.73 7.848 13.721 7.708 13.711 7.59 13.66 7.495 13.569 7.4 13.477 7.353 13.36 7.353 13.216V6.794C7.353 6.644 7.402 6.526 7.5 6.441 7.598 6.356 7.719 6.309 7.863 6.299 8.007 6.289 8.144 6.324 8.275 6.402L13.529 9.51C13.654 9.582 13.737 9.681 13.779 9.809 13.822 9.936 13.823 10.064 13.784 10.191 13.745 10.319 13.66 10.422 13.529 10.5L8.275 13.608Z" fill="#2997FF" /></svg>